<?xml version="1.0" encoding="UTF-8" standalone="no"?>
<svg
   xmlns:dc="http://purl.org/dc/elements/1.1/"
   xmlns:cc="http://creativecommons.org/ns#"
   xmlns:rdf="http://www.w3.org/1999/02/22-rdf-syntax-ns#"
   xmlns:svg="http://www.w3.org/2000/svg"
   xmlns="http://www.w3.org/2000/svg"
   xmlns:xlink="http://www.w3.org/1999/xlink"
   width="102.71568mm"
   height="99.491798mm"
   viewBox="0 0 102.71568 99.491796"
   version="1.1"
   id="svg8">
  <defs
     id="defs2">
    <linearGradient
       id="linearGradient1044">
      <stop
         style="stop-color:#e0fefd;stop-opacity:1"
         offset="0"
         id="stop1040" />
      <stop
         style="stop-color:#82c1e7;stop-opacity:1"
         offset="1"
         id="stop1042" />
    </linearGradient>
    <linearGradient
       xlink:href="#linearGradient1044"
       id="linearGradient1046"
       x1="371.73615"
       y1="466.27945"
       x2="371.73615"
       y2="545.72253"
       gradientUnits="userSpaceOnUse" />
    <clipPath
       clipPathUnits="userSpaceOnUse"
       id="clipPath1318">
      <path
         style="color:#000000;font-style:normal;font-variant:normal;font-weight:normal;font-stretch:normal;font-size:medium;line-height:normal;font-family:sans-serif;font-variant-ligatures:normal;font-variant-position:normal;font-variant-caps:normal;font-variant-numeric:normal;font-variant-alternates:normal;font-feature-settings:normal;text-indent:0;text-align:start;text-decoration:none;text-decoration-line:none;text-decoration-style:solid;text-decoration-color:#000000;letter-spacing:normal;word-spacing:normal;text-transform:none;writing-mode:lr-tb;direction:ltr;text-orientation:mixed;dominant-baseline:auto;baseline-shift:baseline;text-anchor:start;white-space:normal;shape-padding:0;clip-rule:nonzero;display:inline;overflow:visible;visibility:visible;opacity:1;isolation:auto;mix-blend-mode:normal;color-interpolation:sRGB;color-interpolation-filters:linearRGB;solid-color:#000000;solid-opacity:1;vector-effect:none;fill:#0000ff;fill-opacity:1;fill-rule:nonzero;stroke:none;stroke-width:2.265;stroke-linecap:round;stroke-linejoin:round;stroke-miterlimit:4;stroke-dasharray:none;stroke-dashoffset:0;stroke-opacity:1;color-rendering:auto;image-rendering:auto;shape-rendering:auto;text-rendering:auto;enable-background:accumulate"
         d="m 47.86943,112.50166 a 1.1326132,1.1326132 0 0 0 -1.132747,1.13275 v 4.29689 a 1.1326132,1.1326132 0 0 0 1.132747,1.13275 H 88.6411 a 1.1326132,1.1326132 0 0 0 1.132747,-1.13275 v -4.29689 A 1.1326132,1.1326132 0 0 0 88.6411,112.50166 Z m 94.68311,0.51935 a 1.1326132,1.1326132 0 0 0 -1.13275,1.13275 v 32.0337 a 1.1326132,1.1326132 0 0 0 1.13275,1.13274 h 7.50962 a 1.1326132,1.1326132 0 0 0 1.13274,-1.13274 v -32.0337 a 1.1326132,1.1326132 0 0 0 -1.13274,-1.13275 z m -47.814136,0.23409 a 1.1326132,1.1326132 0 0 0 -1.132747,1.13275 v 31.79961 a 1.1326132,1.1326132 0 0 0 1.132747,1.13274 h 40.771666 a 1.1326132,1.1326132 0 0 0 1.13275,-1.13274 v -22.77897 a 1.1326132,1.1326132 0 0 0 -1.13275,-1.13275 h -32.12879 v -7.88789 a 1.1326132,1.1326132 0 0 0 -1.13274,-1.13275 z m -45.736227,1.51205 H 87.50835 v 2.0314 H 49.002177 Z m 94.683103,0.51935 h 5.24413 v 29.76821 h -5.24413 z m -47.814128,0.2341 h 5.244638 v 7.88789 a 1.1326132,1.1326132 0 0 0 1.13275,1.13274 h 32.12879 v 20.51348 H 95.871152 Z m 108.409918,4.41213 a 1.1326132,1.1326132 0 0 0 -1.11776,1.13223 v 9.01805 a 1.1326132,1.1326132 0 0 0 0.50591,0.9431 l 4.96404,3.29954 -4.96404,3.29954 a 1.1326132,1.1326132 0 0 0 -0.50591,0.9431 v 9.01805 a 1.1326132,1.1326132 0 0 0 1.75958,0.94309 l 19.94917,-13.26069 a 1.1326132,1.1326132 0 0 0 0.50229,-0.85628 1.1326132,1.1326132 0 0 0 0.50075,0.85628 l 19.94917,13.26069 a 1.1326132,1.1326132 0 0 0 1.75958,-0.94309 v -9.01805 a 1.1326132,1.1326132 0 0 0 -0.50591,-0.9431 l -4.96404,-3.29954 4.96404,-3.29954 a 1.1326132,1.1326132 0 0 0 0.50591,-0.9431 v -9.01805 a 1.1326132,1.1326132 0 0 0 -1.75958,-0.94309 l -19.94917,13.26069 a 1.1326132,1.1326132 0 0 0 -0.5023,0.85627 1.1326132,1.1326132 0 0 0 -0.50074,-0.85627 l -19.94917,-13.26069 a 1.1326132,1.1326132 0 0 0 -0.64182,-0.18914 z M 0.87953289,122.27574 a 1.1326132,1.1326132 0 0 0 -1.13274741,1.13275 v 22.11079 a 1.1326132,1.1326132 0 0 0 1.13274741,1.13275 H 8.8614745 a 1.1326132,1.1326132 0 0 0 1.1327474,-1.13275 V 132.05085 H 21.693249 l -1.737361,1.12345 a 1.1326132,1.1326132 0 0 0 0,1.90169 l 20.817851,13.46119 a 1.1326132,1.1326132 0 0 0 1.747697,-0.95084 v -9.15448 a 1.1326132,1.1326132 0 0 0 -0.517797,-0.95085 l -4.924248,-3.18378 4.779036,-2.1792 a 1.1326132,1.1326132 0 0 0 0.663009,-1.03043 v -7.67911 a 1.1326132,1.1326132 0 0 0 -1.132747,-1.13275 z m 46.98989711,0 a 1.1326132,1.1326132 0 0 0 -1.132747,1.13275 v 22.77897 a 1.1326132,1.1326132 0 0 0 1.132747,1.13274 H 88.6411 a 1.1326132,1.1326132 0 0 0 1.132747,-1.13274 V 123.40849 A 1.1326132,1.1326132 0 0 0 88.6411,122.27574 Z m 109.52354,0 a 1.1326132,1.1326132 0 0 0 -1.13274,1.13275 v 22.77897 a 1.1326132,1.1326132 0 0 0 1.13274,1.13274 h 40.77168 a 1.1326132,1.1326132 0 0 0 1.13274,-1.13274 v -22.77897 a 1.1326132,1.1326132 0 0 0 -1.13274,-1.13275 z m 48.03583,0.90175 16.77055,11.14816 -16.77055,11.14816 v -6.29833 l 5.87716,-3.90674 a 1.1326132,1.1326132 0 0 0 0,-1.88618 l -5.87716,-3.90674 z m 39.88956,0 v 6.29833 l -5.87716,3.90674 a 1.1326132,1.1326132 0 0 0 0,1.88618 l 5.87716,3.90674 v 6.29833 L 228.5478,134.32565 Z M 2.0122803,124.54123 H 40.255941 v 5.81825 l -5.998083,2.73524 a 1.1326132,1.1326132 0 0 0 -0.145211,1.98127 l 6.143294,3.97237 v 6.45697 l -17.59996,-11.38018 3.489193,-2.2562 a 1.1326132,1.1326132 0 0 0 -0.61495,-2.08359 H 8.8614745 a 1.1326132,1.1326132 0 0 0 -1.1327474,1.13274 v 13.46843 H 2.0122803 Z m 46.9898967,0 H 87.50835 v 20.51348 H 49.002177 Z m 109.523543,0 h 38.50618 v 20.51348 h -38.50618 z m -103.146672,5.24413 a 1.1326132,1.1326132 0 0 0 -1.132747,1.13274 v 7.75974 a 1.1326132,1.1326132 0 0 0 1.132747,1.13275 h 25.279594 a 1.1326132,1.1326132 0 0 0 1.132747,-1.13275 v -7.75974 a 1.1326132,1.1326132 0 0 0 -1.132747,-1.13274 z m 46.869492,0 a 1.1326132,1.1326132 0 0 0 -1.13275,1.13274 v 7.75974 a 1.1326132,1.1326132 0 0 0 1.13275,1.13275 h 25.27907 a 1.1326132,1.1326132 0 0 0 1.13275,-1.13275 v -7.75974 a 1.1326132,1.1326132 0 0 0 -1.13275,-1.13274 z m 62.65457,0 a 1.1326132,1.1326132 0 0 0 -1.13275,1.13274 v 7.75974 a 1.1326132,1.1326132 0 0 0 1.13275,1.13275 h 25.27959 a 1.1326132,1.1326132 0 0 0 1.13275,-1.13275 v -7.75974 a 1.1326132,1.1326132 0 0 0 -1.13275,-1.13274 z m -108.391314,2.26549 h 23.014099 v 5.49424 H 56.511796 Z m 46.869484,0 h 23.01359 v 5.49424 h -23.01359 z m 62.65458,0 h 23.0141 v 5.49424 h -23.0141 z"
         id="path1320" />
    </clipPath>
  </defs>
  <metadata
     id="metadata5">
    <rdf:RDF>
      <cc:Work
         rdf:about="">
        <dc:format>image/svg+xml</dc:format>
        <dc:type
           rdf:resource="http://purl.org/dc/dcmitype/StillImage" />
        <dc:title></dc:title>
      </cc:Work>
    </rdf:RDF>
  </metadata>
  <g
     id="layer1"
     transform="translate(-149.48867,-192.20673)">
    <path
       id="path1148"
       style="fill:#ffffff;fill-opacity:1;stroke:none;stroke-width:0.264583px;stroke-linecap:butt;stroke-linejoin:miter;stroke-opacity:1"
       d="m 222.60888,194.07452 -47.97485,5.21208 -21.24831,3.74138 7.88479,70.29235 26.45936,6.01358 -11.49232,-32.87447 6.14691,-0.26717 20.58014,42.62944 13.36353,-3.74189 26.86037,-1.87069 -44.50012,-39.28856 31.67145,0.66818 5.47874,-3.34088 5.3454,-6.54844 -7.08277,-24.85585 -6.28075,-14.96704 z m -44.83447,21.71599 20.71346,2.4722 0.20051,8.41912 -19.44429,3.67471 z" />
    <path
       id="path0"
       d="m 228.45636,192.28199 c -0.14553,0.0561 -0.45509,0.0762 -0.68792,0.0447 -0.46673,-0.0632 -7.61841,0.55642 -10.21292,0.88477 -0.90223,0.1143 -2.25954,0.25929 -3.01625,0.32226 -0.75671,0.063 -1.70921,0.15743 -2.11666,0.20955 -0.40746,0.0521 -1.47902,0.17013 -2.38125,0.26247 -0.90223,0.0921 -2.08571,0.23812 -2.63023,0.32464 -0.54424,0.0862 -1.54437,0.20479 -2.2225,0.26352 -0.67786,0.0585 -1.61369,0.15055 -2.07936,0.20479 -0.46566,0.0542 -1.65629,0.19341 -2.64583,0.30956 -0.98954,0.11616 -2.2516,0.26009 -2.80458,0.32015 -0.55298,0.0601 -1.57692,0.1823 -2.27542,0.27146 -0.6985,0.0894 -2.09153,0.2585 -3.09536,0.37598 -1.00409,0.11747 -1.88516,0.23336 -1.95792,0.25796 -0.073,0.0243 -0.77549,0.0974 -1.5613,0.16193 -0.78582,0.0646 -2.23838,0.23495 -3.22792,0.37835 -0.98954,0.14367 -2.34685,0.3101 -3.01625,0.36989 -0.6694,0.0601 -1.57427,0.15108 -2.01083,0.20241 -0.43657,0.0513 -2.032,0.21193 -3.54542,0.35718 -1.51342,0.14526 -2.8231,0.28999 -2.91042,0.322 -0.0873,0.0317 -1.46843,0.18204 -3.06916,0.33391 -1.60073,0.15187 -3.29142,0.31512 -3.75709,0.36248 -5.18795,0.52943 -7.15063,0.74586 -9.2075,1.01547 -1.57189,0.20611 -2.47756,0.31697 -3.70416,0.45323 -2.05079,0.22807 -3.78831,0.71199 -4.25159,1.18454 -0.16457,0.16774 -0.35878,0.30639 -0.43154,0.30797 -0.21458,0.005 -0.18812,3.07208 0.0265,3.07208 0.12409,0 0.15901,0.14446 0.15954,0.66146 10e-4,0.61701 0.1061,1.92669 0.31618,3.94229 0.0487,0.46567 0.16431,1.6801 0.25718,2.69875 0.0926,1.01865 0.23997,2.35215 0.32729,2.96333 0.0876,0.61119 0.25664,2.01613 0.37597,3.12209 0.11933,1.10595 0.2577,2.36802 0.30718,2.80458 0.0495,0.43656 0.21352,2.032 0.36433,3.54542 0.15081,1.51341 0.29686,2.81199 0.32412,2.88581 0.0524,0.14023 0.31167,2.88739 0.4273,4.52252 0.0632,0.89694 0.23389,2.55667 0.4736,4.60375 0.058,0.49477 0.10557,1.31445 0.1061,1.82139 5.3e-4,0.50721 0.046,1.38827 0.10107,1.95792 0.14473,1.49278 0.40693,4.97231 0.53658,7.12152 0.0614,1.01865 0.17938,2.66171 0.26193,3.65125 0.0825,0.98954 0.20135,2.79929 0.26379,4.02167 0.0624,1.22237 0.16325,2.91306 0.22384,3.75708 0.25294,3.52849 0.82259,11.95123 0.9361,13.84433 0.0984,1.64491 0.12726,1.72111 0.81306,2.14471 0.18971,0.11747 0.64532,0.26061 1.0123,0.31829 0.65378,0.10319 1.93807,0.38391 4.05421,0.88662 0.58208,0.13811 1.43324,0.30692 1.89124,0.37491 0.45799,0.068 1.01785,0.18892 1.2438,0.26856 0.22596,0.0799 0.70829,0.1987 1.0721,0.26405 0.36353,0.0656 1.35175,0.28205 2.19577,0.48075 0.84402,0.19897 2.08227,0.48577 2.75167,0.63791 0.6694,0.15187 1.55046,0.37227 1.95792,0.48974 0.40745,0.11748 1.31339,0.3646 2.01295,0.54928 0.69982,0.18468 1.32291,0.36724 1.38509,0.4056 0.0622,0.0384 0.29924,0.11536 0.52705,0.17093 1.69783,0.41539 3.12896,0.81227 4.64741,1.28931 0.34925,0.1098 1.00541,0.29422 1.45812,0.40984 0.4527,0.11562 0.87286,0.24103 0.93344,0.27861 0.0606,0.0376 0.47493,0.15716 0.92049,0.2659 0.44556,0.10848 1.09696,0.29051 1.4478,0.40429 0.35057,0.11377 0.82815,0.25955 1.06098,0.32411 0.23283,0.0643 1.04246,0.30612 1.79917,0.5371 1.61475,0.49319 2.11799,0.5342 2.23361,0.18204 0.12224,-0.37254 0.0423,-1.04908 -0.17225,-1.45521 -0.27252,-0.5162 -0.48709,-1.0377 -0.63129,-1.53458 -0.0677,-0.23284 -0.20743,-0.66146 -0.31089,-0.9525 -0.37306,-1.05199 -0.44952,-1.28006 -0.63791,-1.905 -0.1053,-0.34925 -0.51197,-1.53988 -0.90408,-2.64584 -0.39185,-1.10596 -0.83158,-2.41564 -0.97684,-2.91041 -0.14552,-0.49478 -0.35004,-1.09009 -0.45455,-1.32292 -0.10451,-0.23283 -0.41381,-1.06627 -0.68713,-1.85208 -0.27331,-0.78582 -0.5588,-1.59544 -0.6342,-1.79917 -0.43657,-1.17872 -1.09908,-3.05382 -1.15967,-3.28083 -0.0386,-0.14553 -0.11192,-0.35984 -0.16299,-0.47625 -0.15663,-0.35772 -1.07447,-3.05277 -1.13506,-3.33375 -0.0315,-0.14553 -0.0979,-0.31618 -0.14737,-0.37942 -0.0495,-0.0632 -0.30242,-0.72998 -0.56198,-1.48166 -0.43418,-1.25783 -1.10331,-3.16442 -1.85367,-5.28267 -0.16483,-0.46567 -0.47545,-1.32292 -0.69029,-1.905 -0.8636,-2.34157 -0.8726,-2.44475 -0.25321,-2.85486 0.53366,-0.35295 1.53961,-0.35586 2.00422,-0.006 0.25162,0.18997 1.07527,1.76556 2.26959,4.34207 0.26988,0.58209 0.60087,1.29646 0.73581,1.5875 0.13467,0.29104 0.60722,1.28297 1.04987,2.20451 0.44264,0.92128 0.80486,1.69757 0.80486,1.72455 0,0.0498 0.57838,1.28323 1.43272,3.05594 0.25241,0.52388 0.60404,1.26206 0.78131,1.64042 0.17727,0.37835 0.37095,0.75935 0.43022,0.84667 0.0595,0.0873 0.3675,0.70643 0.68447,1.37583 0.31724,0.66939 0.74189,1.52664 0.94377,1.905 0.49768,0.93186 1.76001,3.5687 1.76001,3.67638 0,0.0476 0.0825,0.20426 0.18336,0.3482 0.16721,0.23865 0.90117,1.85076 1.40679,3.09006 0.11218,0.27517 0.3003,0.59664 0.41804,0.71438 0.118,0.118 0.21537,0.29766 0.21669,0.39952 0.001,0.10187 0.10372,0.39952 0.22781,0.66146 0.31353,0.66278 0.93001,2.15238 0.93212,2.25266 0.001,0.0458 0.0804,0.2032 0.17675,0.34978 0.096,0.14684 0.28019,0.56198 0.40931,0.92234 0.12911,0.36063 0.40745,1.01917 0.61886,1.46367 0.2114,0.44424 0.38444,0.86334 0.38444,0.93134 0,0.0677 0.0812,0.27569 0.18071,0.46196 0.21695,0.40666 0.54133,1.17184 1.04113,2.45533 0.20373,0.52388 0.46487,1.143 0.58023,1.37584 0.1151,0.23283 0.20929,0.47704 0.20902,0.54239 -2.6e-4,0.13123 0.37809,1.01388 0.85593,1.99602 0.16933,0.34845 0.31062,0.70564 0.31406,0.79375 0.0389,1.01679 1.51606,2.60509 2.3159,2.49026 0.83529,-0.11986 2.69134,-0.47916 3.03001,-0.58659 0.32623,-0.10318 0.6342,-0.1651 3.37926,-0.67759 0.81491,-0.1524 1.86266,-0.36777 2.32833,-0.4789 0.46567,-0.11086 1.27529,-0.27993 1.79917,-0.37518 0.52387,-0.0955 1.40493,-0.26273 1.95791,-0.37147 0.55298,-0.10901 1.50548,-0.27464 2.11667,-0.36804 0.61119,-0.0931 1.29117,-0.21722 1.5113,-0.27569 0.21987,-0.0582 1.12474,-0.19738 2.01083,-0.3093 0.88583,-0.11219 1.96797,-0.27411 2.40454,-0.3601 0.43656,-0.086 1.08294,-0.15875 1.43668,-0.16193 0.35349,-0.003 1.06786,-0.0741 1.5875,-0.15769 1.80446,-0.29051 3.27846,-0.47704 4.27832,-0.5408 0.55297,-0.0352 1.83885,-0.15373 2.8575,-0.26327 1.01864,-0.10927 2.63789,-0.25003 3.59833,-0.31273 0.96044,-0.0624 2.55587,-0.18336 3.54542,-0.26855 2.52544,-0.21696 5.60255,-0.36645 8.5725,-0.41567 1.397,-0.0233 2.59185,-0.0458 2.65535,-0.05 0.0632,-0.004 0.1696,-0.12674 0.23575,-0.27226 0.22013,-0.48286 -0.12859,-0.89429 -1.55813,-1.83885 -0.20929,-0.13838 -0.64241,-0.47414 -0.96256,-0.74613 -0.32014,-0.27199 -0.74877,-0.60907 -0.9525,-0.74877 -0.20373,-0.13996 -0.3982,-0.29421 -0.43206,-0.34263 -0.0339,-0.0487 -0.20638,-0.19394 -0.38338,-0.32279 -0.66728,-0.48525 -1.47267,-1.11813 -1.83039,-1.43775 -0.20373,-0.18203 -0.56092,-0.45932 -0.79375,-0.61622 -0.23283,-0.15689 -0.57044,-0.42068 -0.75009,-0.58631 -0.17966,-0.16537 -0.47467,-0.38232 -0.65564,-0.48181 -0.18071,-0.0998 -0.50985,-0.34845 -0.73158,-0.55271 -0.22145,-0.20453 -0.97419,-0.80725 -1.67269,-1.33932 -0.6985,-0.53235 -1.38906,-1.08162 -1.53458,-1.22079 -0.14553,-0.13891 -0.43128,-0.36671 -0.635,-0.50562 -0.20373,-0.13917 -0.54372,-0.39899 -0.75565,-0.57759 -0.21194,-0.17832 -0.77709,-0.63394 -1.25572,-1.01229 -0.47863,-0.37836 -1.01838,-0.81889 -1.19935,-0.97896 -0.18098,-0.16007 -0.36539,-0.29104 -0.41011,-0.29104 -0.0447,0 -0.34396,-0.23813 -0.66542,-0.52917 -0.32147,-0.29104 -0.62654,-0.52916 -0.67787,-0.52916 -0.0513,0 -0.2532,-0.14976 -0.44873,-0.33285 -0.313,-0.29342 -0.82497,-0.70088 -1.77535,-1.4134 -0.15531,-0.11642 -0.73264,-0.57018 -1.28297,-1.00807 -0.5506,-0.43815 -1.12527,-0.89058 -1.27714,-1.00541 -0.15187,-0.1151 -0.89747,-0.70909 -1.65709,-1.32027 -0.75962,-0.61119 -1.82589,-1.45548 -2.36961,-1.87616 -0.54372,-0.42096 -1.10781,-0.87525 -1.25333,-1.01018 -0.27093,-0.25056 -2.16985,-1.73435 -2.78156,-2.17329 -0.18733,-0.13415 -0.50721,-0.39979 -0.71094,-0.59029 -0.40269,-0.37623 -2.20927,-1.84758 -2.83739,-2.31113 -0.21484,-0.15849 -0.48577,-0.37624 -0.60219,-0.48393 -0.11642,-0.10795 -0.42598,-0.35877 -0.68792,-0.558 -0.26194,-0.19897 -0.49239,-0.39846 -0.51197,-0.44318 -0.0196,-0.0447 -0.2532,-0.23098 -0.51911,-0.41381 -0.26564,-0.18309 -0.56092,-0.41037 -0.6559,-0.50535 -0.095,-0.095 -0.36142,-0.31221 -0.59214,-0.48287 -0.23071,-0.17065 -0.59081,-0.45455 -0.79983,-0.63129 -0.20929,-0.17648 -0.47123,-0.39238 -0.58209,-0.47996 -0.32305,-0.25479 -1.27688,-1.04113 -2.43734,-2.01056 -1.97141,-1.64624 -2.99402,-2.47359 -3.18479,-2.57652 -0.10398,-0.0561 -0.40322,-0.28548 -0.66516,-0.51011 -0.26194,-0.22437 -0.56356,-0.48287 -0.67019,-0.57441 -0.10663,-0.0915 -0.35507,-0.26141 -0.55219,-0.37783 -0.36724,-0.21669 -0.78845,-0.78475 -0.78845,-1.06362 0,-0.48049 0.22145,-0.50986 3.02286,-0.39979 1.4515,0.0572 4.0603,0.15187 5.79729,0.21061 1.73699,0.0587 3.71342,0.15531 4.39208,0.21511 2.06269,0.18124 6.08118,0.431 8.43068,0.5244 1.24434,0.0495 2.59504,0.16325 3.06917,0.2585 1.23772,0.24871 2.58339,-0.009 2.95857,-0.56753 0.10901,-0.16246 0.3466,-0.37518 0.52758,-0.47255 0.18097,-0.0974 0.47175,-0.30639 0.64611,-0.46434 0.58447,-0.5297 1.66423,-1.31578 2.04867,-1.49199 0.74083,-0.33946 1.59173,-0.96202 2.51513,-1.84018 1.05251,-1.00091 1.98041,-1.82165 2.80802,-2.4839 1.66476,-1.33165 2.30029,-1.85367 2.7305,-2.24314 0.26194,-0.23707 0.6731,-0.60934 0.91387,-0.82735 0.90647,-0.82127 0.88159,-1.32715 -0.18229,-3.70682 -0.11139,-0.24897 -0.20268,-0.53472 -0.20294,-0.635 -5.3e-4,-0.10027 -0.0735,-0.32173 -0.16245,-0.49239 -0.0889,-0.17039 -0.33364,-0.81332 -0.54372,-1.42875 -0.21035,-0.61515 -0.43154,-1.2139 -0.4916,-1.33032 -0.0603,-0.11642 -0.31009,-0.78317 -0.55562,-1.48167 -0.24527,-0.6985 -0.55219,-1.53193 -0.68184,-1.85208 -0.12991,-0.32015 -0.27278,-0.91546 -0.31776,-1.32292 -0.0873,-0.78951 -0.47334,-2.40347 -0.65722,-2.7469 -0.0609,-0.11377 -0.17542,-0.48445 -0.25453,-0.82365 -0.0791,-0.33893 -0.23337,-0.79375 -0.3429,-1.01018 -0.10954,-0.21643 -0.27967,-0.75036 -0.37809,-1.18692 -0.0984,-0.4363 -0.24342,-0.86492 -0.32253,-0.9525 -0.0788,-0.0873 -0.24818,-0.44476 -0.3765,-0.79401 -0.12833,-0.34925 -0.34264,-0.87868 -0.47652,-1.17661 -0.13388,-0.29792 -0.29607,-0.73712 -0.36036,-0.97604 -0.0643,-0.23892 -0.27966,-0.73343 -0.47837,-1.09882 -0.82206,-1.51024 -0.98583,-1.8579 -1.16231,-2.46353 -0.1016,-0.34925 -0.22384,-0.75407 -0.27173,-0.89959 -0.0481,-0.14552 -0.16378,-0.64558 -0.25744,-1.11125 -0.17965,-0.89376 -0.50456,-2.07962 -0.73924,-2.69875 -0.0773,-0.20373 -0.34317,-1.01335 -0.59055,-1.79916 -0.24739,-0.78582 -0.60616,-1.88119 -0.79719,-2.43417 -0.19103,-0.55298 -0.49795,-1.45785 -0.6821,-2.01083 -0.18415,-0.55298 -0.42624,-1.1991 -0.5379,-1.43563 -0.11139,-0.2368 -0.20267,-0.50853 -0.20267,-0.60378 0,-0.0955 -0.1225,-0.49715 -0.27225,-0.89271 -0.14976,-0.39555 -0.43868,-1.17051 -0.64215,-1.72217 -1.066,-2.89189 -2.07142,-4.08464 -3.10726,-3.68564 m -3.44964,4.7445 c 0.58155,0.64373 1.9423,3.85022 2.64821,6.24126 0.0947,0.32015 0.33285,1.01071 0.5297,1.53458 0.19685,0.52388 0.48392,1.35732 0.63791,1.85209 0.15399,0.49477 0.32147,0.99483 0.37253,1.11125 0.0508,0.11641 0.2675,0.78316 0.48128,1.48166 0.21405,0.6985 0.55192,1.77007 0.75089,2.38125 0.62415,1.91823 0.95726,2.96625 1.46314,4.60375 0.26988,0.87313 0.6313,2.01613 0.80328,2.54 0.17198,0.52388 0.42889,1.40494 0.5707,1.95792 0.14182,0.55298 0.30639,1.14829 0.36539,1.32292 0.28205,0.8337 0.8636,2.79188 0.92737,3.12208 0.0394,0.20373 0.1307,0.46567 0.2032,0.58208 0.0722,0.11642 0.1651,0.42598 0.20611,0.68792 0.0661,0.42254 0.38364,1.53987 0.84243,2.96333 0.15584,0.4834 0.44503,1.65153 0.69453,2.80459 0.0757,0.34925 0.20082,0.76358 0.27861,0.92075 0.32702,0.66278 0.0767,2.39024 -0.38814,2.67758 -0.0598,0.037 -0.19924,0.24262 -0.30957,0.45693 -0.21669,0.42016 -2.81702,3.13214 -3.34539,3.4888 -0.17674,0.11933 -0.38603,0.33761 -0.46514,0.48525 -0.0788,0.14763 -0.26775,0.31194 -0.41936,0.36512 -0.15187,0.0534 -0.46646,0.27358 -0.69929,0.48922 -0.54716,0.5072 -1.5629,1.18163 -1.99205,1.32265 -0.22649,0.0743 -5.76289,0.11933 -16.95212,0.13785 -18.49094,0.0307 -17.21988,-0.023 -17.28285,0.72919 -0.0373,0.44661 -0.28734,0.16669 2.99747,3.3565 3.3856,3.28798 4.01716,3.87615 6.66538,6.20819 0.58208,0.51276 1.20332,1.0795 1.38086,1.25941 0.17727,0.18018 0.93821,0.89906 1.69069,1.59756 0.75274,0.6985 1.63142,1.51553 1.95289,1.8153 0.75776,0.7067 2.07459,1.88833 2.66223,2.3884 0.25427,0.21669 0.70247,0.6215 0.9959,0.89958 0.29315,0.27834 1.00383,0.93451 1.57929,1.45838 0.57547,0.52388 1.43854,1.3335 1.91797,1.79917 0.47942,0.46567 1.1258,1.06786 1.43669,1.33853 0.31088,0.2704 0.83132,0.74665 1.15675,1.05833 0.32544,0.31141 0.8255,0.76306 1.11125,1.00303 0.65009,0.54637 2.62732,2.54688 2.86518,2.89904 0.0976,0.14447 0.87418,0.9533 1.72561,1.79732 0.85143,0.84402 1.65523,1.67746 1.78594,1.85208 0.13097,0.17463 1.36683,1.47505 2.74664,2.89005 3.63511,3.72745 3.63511,3.72798 -0.0841,3.79703 -1.30069,0.0243 -2.61541,0.10557 -3.06917,0.18997 -1.41023,0.26194 -2.34394,0.3646 -4.28625,0.47096 -1.04775,0.0577 -2.16694,0.17754 -2.48708,0.26644 -0.32015,0.0889 -1.33985,0.23442 -2.26589,0.32332 -0.92604,0.0886 -1.94998,0.23018 -2.27542,0.31406 -0.32544,0.0839 -1.04404,0.2069 -1.59702,0.27358 -0.55298,0.0667 -1.5293,0.2323 -2.16959,0.3683 -0.64029,0.13599 -1.47584,0.27437 -1.85684,0.30771 -0.381,0.0333 -1.03929,0.15663 -1.46315,0.27384 -2.24102,0.62124 -3.24908,0.70591 -3.74623,0.31485 -0.24818,-0.19552 -2.08836,-3.26654 -2.08836,-3.48562 0,-0.0505 -0.17092,-0.34607 -0.37994,-0.65643 -0.20876,-0.31062 -0.46435,-0.7321 -0.5678,-0.93662 -0.34184,-0.67681 -0.76173,-1.42055 -0.95567,-1.69281 -0.10504,-0.14763 -0.44609,-0.75618 -0.75777,-1.35228 -0.86625,-1.65682 -0.96229,-1.83224 -2.03941,-3.72004 -0.55271,-0.96811 -1.10913,-1.99761 -1.23693,-2.28759 -0.20769,-0.47122 -1.26417,-2.37437 -1.46764,-2.64372 -0.0439,-0.0582 -0.11403,-0.24871 -0.15584,-0.42333 -0.0418,-0.17463 -0.23336,-0.57944 -0.42545,-0.89958 -0.19235,-0.32015 -0.95514,-1.79653 -1.69518,-3.28084 -0.74031,-1.48431 -1.43325,-2.86544 -1.54014,-3.06916 -0.1069,-0.20373 -0.54028,-1.0848 -0.96309,-1.95792 -0.42307,-0.87313 -0.81438,-1.64862 -0.86968,-1.7235 -0.0556,-0.0746 -0.34872,-0.66992 -0.65167,-1.32291 -0.30268,-0.65273 -0.77179,-1.54199 -1.04219,-1.97591 -0.27041,-0.43365 -0.4916,-0.85143 -0.4916,-0.92816 0,-0.0765 -0.10901,-0.31671 -0.24209,-0.53393 -0.13309,-0.21722 -0.7538,-1.41869 -1.37954,-2.67017 -1.16523,-2.33125 -1.66714,-3.14246 -2.13334,-3.44779 -0.55456,-0.36354 -2.35664,-0.31406 -4.23545,0.11615 -0.40746,0.0934 -1.24089,0.19738 -1.85208,0.23125 -2.01692,0.11165 -2.84163,1.37795 -1.9177,2.94402 0.11271,0.19076 0.3048,0.73236 0.42677,1.20385 0.28364,1.09405 0.71544,2.422 0.89826,2.76252 0.0781,0.14552 0.17622,0.45481 0.21828,0.68738 0.0418,0.23231 0.18759,0.69665 0.32359,1.03135 0.136,0.3347 0.30348,0.88265 0.37227,1.21761 0.0688,0.33496 0.18574,0.72813 0.26008,0.87366 0.12515,0.24474 0.82868,2.39474 1.83489,5.60916 0.52864,1.68857 1.46658,4.61672 2.23758,6.985 0.33179,1.01865 0.68739,2.13784 0.79084,2.48709 0.10319,0.34925 0.35877,1.18268 0.56806,1.85208 0.40005,1.28085 0.49768,2.27171 0.25268,2.56699 -0.36963,0.44529 -2.17805,0.4392 -4.53575,-0.0154 -0.57309,-0.1106 -1.52242,-0.2331 -2.10953,-0.27226 -0.58711,-0.0392 -1.25386,-0.12012 -1.48166,-0.17965 -0.85699,-0.22436 -1.91453,-0.3982 -2.44581,-0.40216 -0.30269,-0.002 -0.92181,-0.11907 -1.37584,-0.2593 -0.45429,-0.14023 -1.2782,-0.30612 -1.83118,-0.3683 -0.55298,-0.0624 -1.19591,-0.18203 -1.42875,-0.26564 -0.23283,-0.0836 -0.75459,-0.22807 -1.15967,-0.32067 -1.42769,-0.32676 -1.76953,-1.14247 -2.02247,-4.82283 -0.0418,-0.61119 -0.1352,-1.2065 -0.20717,-1.32291 -0.12859,-0.20797 -0.16827,-0.57785 -0.36856,-3.43959 -0.0548,-0.78581 -0.195,-1.88119 -0.31142,-2.43416 -0.12462,-0.59188 -0.25876,-1.8542 -0.32597,-3.06917 -0.063,-1.13506 -0.15769,-2.20663 -0.21034,-2.38125 -0.15928,-0.52705 -0.42148,-2.79559 -0.42148,-3.64517 0,-0.78554 -0.23521,-2.82125 -0.42386,-3.6695 -0.0532,-0.23971 -0.12409,-1.14459 -0.15769,-2.01083 -0.0601,-1.55946 -0.11695,-2.11006 -0.4191,-4.06242 -0.0855,-0.55298 -0.18363,-1.67216 -0.21802,-2.48708 -0.0344,-0.81492 -0.10716,-1.81504 -0.16219,-2.2225 -0.10742,-0.79957 -0.24157,-1.95263 -0.41249,-3.54542 -0.0595,-0.55298 -0.10874,-1.46605 -0.1098,-2.02909 -0.001,-0.56329 -0.0526,-1.27767 -0.11456,-1.5875 -0.0619,-0.31009 -0.15849,-0.80195 -0.21458,-1.09299 -0.0558,-0.29104 -0.14684,-1.42214 -0.20214,-2.51328 -0.0553,-1.0914 -0.195,-2.54397 -0.31036,-3.22791 -0.27278,-1.61687 -0.43021,-3.20887 -0.43021,-4.35081 0,-0.50324 -0.0992,-1.41499 -0.22013,-2.02618 -0.14579,-0.73475 -0.25109,-1.84547 -0.31089,-3.28057 -0.0595,-1.42134 -0.16774,-2.57096 -0.31432,-3.33375 -0.26432,-1.3761 -0.45879,-5.4393 -0.29184,-6.09679 0.15081,-0.59426 0.63712,-0.9189 1.64095,-1.09538 0.4527,-0.0796 1.13162,-0.22489 1.50892,-0.32279 0.37729,-0.0982 1.11468,-0.2196 1.63856,-0.2704 0.52387,-0.0505 1.30969,-0.18759 1.74625,-0.30428 0.43656,-0.11668 1.29381,-0.26431 1.905,-0.32808 0.61119,-0.0638 1.63512,-0.22833 2.27542,-0.36565 0.64029,-0.13732 1.6166,-0.2794 2.16958,-0.31565 0.55298,-0.0362 1.36551,-0.15769 1.80578,-0.26961 0.44027,-0.11192 1.44119,-0.25241 2.22462,-0.31168 0.78343,-0.0595 1.68539,-0.17489 2.00422,-0.25638 0.79428,-0.20267 1.87616,-0.35878 3.03133,-0.43683 0.5334,-0.036 1.34302,-0.13838 1.79916,-0.22728 0.45615,-0.0892 1.60206,-0.22463 2.54635,-0.30109 0.9443,-0.0767 1.87299,-0.18865 2.06375,-0.24871 0.42175,-0.13309 1.95051,-0.30163 3.52187,-0.38841 0.64029,-0.0354 1.68804,-0.15266 2.32834,-0.26061 1.77429,-0.29925 2.09444,-0.3347 3.86291,-0.42704 0.90223,-0.0474 1.99761,-0.1614 2.43417,-0.25347 0.43656,-0.0923 1.69862,-0.21802 2.80458,-0.27967 1.10596,-0.0614 2.43946,-0.18547 2.96334,-0.27543 1.2774,-0.2196 2.45692,-0.32835 4.92125,-0.45376 1.13506,-0.0579 2.159,-0.127 2.27541,-0.15346 1.40917,-0.32199 3.74148,-0.44979 8.58653,-0.47043 l 3.71845,-0.0159 0.38497,0.42624 m -49.15059,17.27438 c -0.2368,0.38815 -0.3093,2.91836 -0.10927,3.80842 0.17383,0.77364 0.322,2.27594 0.43577,4.42013 0.0603,1.13506 0.1569,2.3495 0.21457,2.69875 0.058,0.34925 0.14976,0.89693 0.20426,1.21708 0.0542,0.32015 0.14288,1.39171 0.19685,2.38125 0.15769,2.89666 0.63447,4.18042 1.55178,4.18042 0.4826,0 2.07196,-0.28893 2.62811,-0.47758 0.26009,-0.0884 0.98822,-0.23045 1.61819,-0.31564 0.62997,-0.0855 1.38351,-0.22966 1.67455,-0.32068 0.29104,-0.091 0.91017,-0.21299 1.37583,-0.2712 0.46567,-0.0579 1.29911,-0.21881 1.85209,-0.35692 0.55298,-0.13838 1.50071,-0.30665 2.10608,-0.37386 0.60537,-0.0675 1.20068,-0.18547 1.32292,-0.2622 0.13282,-0.0833 0.90011,-0.18838 1.90711,-0.26141 0.92657,-0.0669 1.73276,-0.1516 1.79123,-0.18785 0.20188,-0.12462 2.13387,-0.44397 2.71516,-0.449 1.82271,-0.0151 3.57399,-0.65749 3.85921,-1.41526 0.25744,-0.685 0.19473,-10.44575 -0.0704,-10.92967 -0.49662,-0.90699 -1.45336,-1.37715 -3.20675,-1.57586 -0.6985,-0.0791 -1.55575,-0.22092 -1.905,-0.31485 -0.34925,-0.0942 -1.30175,-0.21511 -2.11667,-0.26882 -1.68963,-0.11112 -2.72653,-0.24632 -3.15013,-0.4109 -0.16113,-0.0624 -1.20888,-0.16351 -2.32833,-0.22463 -1.11972,-0.0611 -2.72627,-0.18626 -3.57029,-0.27781 -1.62533,-0.17621 -4.77176,-0.32517 -7.27763,-0.34422 l -1.50971,-0.0116 -0.20955,0.34395 m 7.40939,3.04033 c 0.55298,0.054 1.71979,0.17542 2.59292,0.26961 0.87312,0.0945 2.18281,0.21193 2.91042,0.26088 5.90682,0.39846 8.255,1.15702 8.255,2.667 0,4.05051 -0.44715,4.60957 -4.1275,5.16017 -1.71689,0.25691 -4.88183,0.84905 -6.24417,1.1684 -0.20373,0.0476 -0.63527,0.1397 -0.95912,0.20452 -0.32385,0.0648 -0.96678,0.23839 -1.42875,0.38629 -2.78791,0.89086 -3.64992,0.86943 -4.01187,-0.0997 -0.36671,-0.98161 -1.16099,-8.65188 -0.9734,-9.39933 0.18653,-0.74348 1.15675,-0.89376 3.98647,-0.6178"
       stroke="none"
       fill="#f71314"
       fill-rule="evenodd"
       style="stroke-width:0.264583" />
  </g>
</svg>
